<svg version="1.0" xmlns="http://www.w3.org/2000/svg"
 width="100.000000pt" height="100.000000pt" viewBox="0 0 100.000000 100.000000"
 preserveAspectRatio="xMidYMid meet">
<metadata>
Created by potrace 1.16, written by Peter Selinger 2001-2019
</metadata>
<g transform="translate(0.000000,100.000000) scale(0.100000,-0.100000)"
fill="#000000" stroke="none">
<path d="M30 875 c0 -8 15 -21 34 -29 19 -8 41 -27 49 -43 7 -15 47 -126 87
-245 l74 -218 41 0 41 0 63 196 c35 107 64 194 66 192 2 -2 33 -90 70 -195
l68 -193 42 0 42 0 78 228 c42 125 82 235 87 245 5 10 25 25 44 33 62 26 37
39 -79 42 -102 3 -107 2 -107 -18 0 -14 7 -20 21 -20 27 0 59 -18 59 -33 0
-27 -93 -327 -100 -320 -4 4 -28 71 -55 148 -26 77 -57 164 -67 193 l-20 53
-41 -3 -41 -3 -56 -180 c-31 -99 -59 -187 -62 -195 -2 -8 -29 57 -58 146 -30
89 -51 168 -47 177 4 10 17 17 32 17 18 0 25 5 25 20 0 19 -7 20 -145 20 -122
0 -145 -2 -145 -15z"/>
</g>
</svg>